<svg xmlns="http://www.w3.org/2000/svg" xmlns:xlink="http://www.w3.org/1999/xlink" width="175.623" height="86.868" viewBox="0 0 175.623 86.868"><defs><linearGradient id="a" x1="148.332" y1="0.5" x2="94.733" y2="0.5" gradientUnits="objectBoundingBox"><stop offset="0.053" stop-color="#868082"/><stop offset="0.292" stop-color="#039d8f"/><stop offset="0.537" stop-color="#6abfb5"/><stop offset="0.788" stop-color="#6abfb5"/><stop offset="0.844" stop-color="#6dc0b6"/><stop offset="0.897" stop-color="#79c4bb"/><stop offset="0.949" stop-color="#8bcbc4"/><stop offset="0.999" stop-color="#a6d5cf"/><stop offset="1" stop-color="#a7d6d0"/></linearGradient><linearGradient id="b" x1="94.929" y1="0.5" x2="60.758" y2="0.5" xlink:href="#a"/><linearGradient id="c" x1="94.93" y1="0.5" x2="60.759" y2="0.5" xlink:href="#a"/><linearGradient id="g" x1="93.395" y1="0.5" x2="59.224" y2="0.5" xlink:href="#a"/><linearGradient id="h" x1="93.396" y1="0.5" x2="59.225" y2="0.5" xlink:href="#a"/><linearGradient id="l" x1="91.863" y1="0.5" x2="57.692" y2="0.5" xlink:href="#a"/><linearGradient id="q" x1="90.33" y1="0.5" x2="56.159" y2="0.5" xlink:href="#a"/><linearGradient id="v" x1="88.797" y1="0.5" x2="54.625" y2="0.5" xlink:href="#a"/><linearGradient id="aa" x1="87.263" y1="0.5" x2="53.092" y2="0.5" xlink:href="#a"/><linearGradient id="ae" x1="85.73" y1="0.5" x2="51.559" y2="0.5" xlink:href="#a"/><linearGradient id="ai" x1="84.197" y1="0.5" x2="50.026" y2="0.5" xlink:href="#a"/><linearGradient id="ak" x1="82.831" y1="0.5" x2="48.66" y2="0.5" xlink:href="#a"/><linearGradient id="al" x1="82.664" y1="0.5" x2="48.492" y2="0.5" xlink:href="#a"/><linearGradient id="an" x1="81.131" y1="0.5" x2="46.959" y2="0.5" xlink:href="#a"/><linearGradient id="ao" x1="104.539" y1="0.5" x2="59.687" y2="0.5" xlink:href="#a"/><linearGradient id="ap" x1="130.978" y1="0.5" x2="74.966" y2="0.5" xlink:href="#a"/><linearGradient id="aq" x1="109.357" y1="0.5" x2="61.399" y2="0.5" xlink:href="#a"/><linearGradient id="ar" x1="115.717" y1="0.5" x2="62.868" y2="0.5" xlink:href="#a"/><linearGradient id="as" x1="147.299" y1="0.5" x2="81.467" y2="0.5" xlink:href="#a"/><linearGradient id="at" x1="96.898" y1="0.5" x2="52.178" y2="0.5" xlink:href="#a"/><linearGradient id="au" x1="119.276" y1="0.5" x2="63.264" y2="0.5" xlink:href="#a"/><linearGradient id="av" x1="125.728" y1="0.5" x2="65.253" y2="0.5" xlink:href="#a"/></defs><g transform="translate(0 0)"><g transform="translate(1.075 13.334)"><line y1="0.134" transform="translate(49.575)" fill="none" stroke="#a5a0a2" stroke-miterlimit="10" stroke-width="2"/><g transform="translate(0 24.295)"><path d="M156.942,125.9a12.5,12.5,0,0,0-.763-1.149,11.345,11.345,0,0,0-8.9-4.085H109.045v.8h38.234a10.548,10.548,0,0,1,8.275,3.788c.118.146.452.643.452.643Z" transform="translate(-109.045 -120.665)" fill="#a5a0a2"/></g></g><path d="M157.958,38.571v-.134A11.34,11.34,0,0,0,146.617,27.1H106.372v.134h40.245A11.34,11.34,0,0,1,157.958,38.571Z" transform="translate(-106.372 -27.1)" fill="none"/><path d="M157.028,70.171,157,70.116a11.368,11.368,0,0,0-10.388-6.783H106.372v-35.9h40.245a11.34,11.34,0,0,1,11.341,11.337v31.4Z" transform="translate(-106.372 -27.298)" fill="#039d8f"/><g transform="translate(52.427 0.134)"><path d="M245.133,31.855a11.4,11.4,0,0,0-3.212,3.26h3.212Z" transform="translate(-240.095 -30.076)" fill="url(#a)"/><path d="M237.38,51.217h5.038V46.179h-4.429a11.313,11.313,0,0,0-.609,3.663Z" transform="translate(-237.38 -38.64)" fill="url(#b)"/><rect width="5.038" height="5.038" transform="translate(0 15.079)" fill="url(#c)"/><rect width="5.038" height="5.038" transform="translate(0 22.618)" fill="url(#c)"/><rect width="5.038" height="5.038" transform="translate(0 30.158)" fill="url(#c)"/><path d="M237.38,121.166V126.2h.942a11.169,11.169,0,0,1,4.1-4.83v-.208Z" transform="translate(-237.38 -83.469)" fill="url(#b)"/><path d="M261.627,27.432h-3.166a11.273,11.273,0,0,0-1.872.459V32.47h5.038Z" transform="translate(-248.864 -27.432)" fill="url(#g)"/><rect width="5.038" height="5.038" transform="translate(7.725 7.54)" fill="url(#h)"/><rect width="5.038" height="5.038" transform="translate(7.725 15.079)" fill="url(#h)"/><rect width="5.038" height="5.038" transform="translate(7.725 22.618)" fill="url(#h)"/><rect width="5.038" height="5.038" transform="translate(7.725 30.158)" fill="url(#h)"/><rect width="5.038" height="5.038" transform="translate(15.45 0)" fill="url(#l)"/><rect width="5.038" height="5.038" transform="translate(15.45 7.54)" fill="url(#l)"/><rect width="5.038" height="5.038" transform="translate(15.45 15.079)" fill="url(#l)"/><rect width="5.038" height="5.038" transform="translate(15.45 22.618)" fill="url(#l)"/><rect width="5.038" height="5.038" transform="translate(15.45 30.158)" fill="url(#l)"/><rect width="5.038" height="5.038" transform="translate(23.175 0)" fill="url(#q)"/><rect width="5.038" height="5.038" transform="translate(23.175 7.54)" fill="url(#q)"/><rect width="5.038" height="5.038" transform="translate(23.175 15.079)" fill="url(#q)"/><rect width="5.038" height="5.038" transform="translate(23.175 22.618)" fill="url(#q)"/><rect width="5.038" height="5.038" transform="translate(23.175 30.158)" fill="url(#q)"/><rect width="5.038" height="5.038" transform="translate(30.9 0)" fill="url(#v)"/><rect width="5.038" height="5.038" transform="translate(30.9 7.54)" fill="url(#v)"/><rect width="5.038" height="5.038" transform="translate(30.9 15.079)" fill="url(#v)"/><rect width="5.038" height="5.038" transform="translate(30.9 22.618)" fill="url(#v)"/><rect width="5.038" height="5.038" transform="translate(30.9 30.158)" fill="url(#v)"/><rect width="5.038" height="5.038" transform="translate(38.625 0)" fill="url(#aa)"/><rect width="5.038" height="5.038" transform="translate(38.625 15.079)" fill="url(#aa)"/><rect width="5.038" height="5.038" transform="translate(38.625 22.618)" fill="url(#aa)"/><rect width="5.038" height="5.038" transform="translate(38.625 30.158)" fill="url(#aa)"/><rect width="5.038" height="5.038" transform="translate(46.35 0)" fill="url(#ae)"/><rect width="5.038" height="5.038" transform="translate(46.35 15.079)" fill="url(#ae)"/><rect width="5.038" height="5.038" transform="translate(46.35 22.618)" fill="url(#ae)"/><rect width="5.038" height="5.038" transform="translate(46.35 30.158)" fill="url(#ae)"/><rect width="5.038" height="5.038" transform="translate(54.075 15.079)" fill="url(#ai)"/><rect width="5.038" height="5.038" transform="translate(54.075 30.158)" fill="url(#ai)"/><rect width="5.038" height="5.038" transform="translate(60.955 0)" fill="url(#ak)"/><rect width="5.038" height="5.038" transform="translate(61.8 15.079)" fill="url(#al)"/><rect width="5.038" height="5.038" transform="translate(61.8 30.158)" fill="url(#al)"/><rect width="5.038" height="5.038" transform="translate(69.525 15.079)" fill="url(#an)"/><rect width="3.839" height="3.839" transform="translate(77.005 8.139)" fill="url(#ao)"/><rect width="3.074" height="3.074" transform="translate(75.698 31.14)" fill="url(#ap)"/><rect width="3.59" height="3.59" transform="translate(85.699 23.342)" fill="url(#aq)"/><rect width="3.258" height="3.258" transform="translate(101.315 23.509)" fill="url(#ar)"/><rect width="2.615" height="2.615" transform="translate(93.066 8.751)" fill="url(#as)"/><rect width="3.85" height="3.85" transform="translate(105.243 15.673)" fill="url(#at)"/><rect width="3.074" height="3.074" transform="translate(111.666 31.14)" fill="url(#au)"/><rect width="2.847" height="2.847" transform="translate(120.349 16.175)" fill="url(#av)"/></g></g><g transform="translate(20.309 69.425)"><path d="M156.872,218.927q.022-.6.081-1.742t.14-2.543q.081-1.406.162-2.927t.163-2.927q.081-1.4.151-2.532t.116-1.731a1.432,1.432,0,0,1,.557-1.184,2.013,2.013,0,0,1,1.161-.348,2.907,2.907,0,0,1,1.185.209,2.286,2.286,0,0,1,.65.395q.279.557.848,1.707t1.231,2.485q.662,1.336,1.324,2.636t1.1,2.16q.395-.789.987-1.963t1.184-2.369L169.031,206q.522-1.056.8-1.637a2.618,2.618,0,0,1,.813-1.022,2.108,2.108,0,0,1,1.254-.348,3.256,3.256,0,0,1,1.138.174,1.907,1.907,0,0,1,.581.29q.046.65.116,1.881t.151,2.729q.081,1.5.175,3.135t.186,3.136q.092,1.5.151,2.717t.1,1.87h-2.717q-.024-.372-.07-1.289t-.116-2.125q-.069-1.207-.139-2.543t-.14-2.532q-.069-1.2-.127-2.113t-.081-1.266l-.557,1.115q-.349.7-.755,1.521t-.848,1.731q-.442.905-.848,1.73t-.743,1.533q-.337.708-.546,1.126h-2.276q-.278-.627-.813-1.731t-1.15-2.357q-.615-1.255-1.231-2.485t-1.1-2.137q-.023.557-.081,1.486t-.116,2.067q-.059,1.138-.128,2.358t-.128,2.357q-.058,1.138-.1,2.067t-.07,1.487Z" transform="translate(-156.872 -201.809)" fill="#a5a0a2"/><path d="M224.2,224.75c-.154.031-.4.065-.731.1s-.724.078-1.173.116-.952.073-1.51.1-1.138.046-1.742.046a11.538,11.538,0,0,1-2.961-.313,5.053,5.053,0,0,1-1.812-.837,2.681,2.681,0,0,1-.906-1.208,4.151,4.151,0,0,1-.244-1.4,4.446,4.446,0,0,1,.29-1.673,2.768,2.768,0,0,1,.952-1.208,4.631,4.631,0,0,1,1.73-.732,11.882,11.882,0,0,1,2.6-.244q.883,0,1.673.058t1.184.1a3.008,3.008,0,0,0-.267-1.347,2.087,2.087,0,0,0-.732-.836,3,3,0,0,0-1.115-.418,8.248,8.248,0,0,0-1.44-.116,6.152,6.152,0,0,0-2.125.3,4.246,4.246,0,0,0-1.057.511,2.817,2.817,0,0,1-.383-.441,1.279,1.279,0,0,1-.244-.79,1.3,1.3,0,0,1,.175-.639,1.507,1.507,0,0,1,.615-.557,4,4,0,0,1,1.184-.383,10.5,10.5,0,0,1,1.882-.14,10.827,10.827,0,0,1,2.5.267,5.477,5.477,0,0,1,1.939.848,3.9,3.9,0,0,1,1.266,1.533,5.319,5.319,0,0,1,.453,2.3Zm-2.624-5.157q-.233-.046-.871-.139a14.493,14.493,0,0,0-1.916-.093,4.28,4.28,0,0,0-2.3.476,1.666,1.666,0,0,0-.72,1.5,1.9,1.9,0,0,0,.151.767,1.353,1.353,0,0,0,.523.592,2.871,2.871,0,0,0,1.01.372,8.3,8.3,0,0,0,1.591.128,13.844,13.844,0,0,0,1.7-.081q.627-.081.836-.128Z" transform="translate(-190.549 -207.678)" fill="#a5a0a2"/><path d="M262.715,201.279a1.143,1.143,0,0,1,.36-.929,1.568,1.568,0,0,1,1.034-.3,2.664,2.664,0,0,1,.767.1q.348.1.464.151v10.475a8.3,8.3,0,0,1-.476,2.95,5.839,5.839,0,0,1-1.313,2.09,5.384,5.384,0,0,1-1.974,1.254,7.157,7.157,0,0,1-2.485.418,6.674,6.674,0,0,1-2.52-.464,6.073,6.073,0,0,1-1.986-1.278,5.806,5.806,0,0,1-1.313-1.951,6.314,6.314,0,0,1-.476-2.462,6.574,6.574,0,0,1,.453-2.474,5.955,5.955,0,0,1,1.254-1.951,5.634,5.634,0,0,1,1.881-1.277,6.033,6.033,0,0,1,2.358-.453,5.136,5.136,0,0,1,2.369.523,4.722,4.722,0,0,1,1.6,1.266Zm0,10.057a4.124,4.124,0,0,0-.267-1.486,3.8,3.8,0,0,0-.732-1.208,3.294,3.294,0,0,0-1.126-.8,3.8,3.8,0,0,0-2.915,0,3.517,3.517,0,0,0-1.126.79,3.4,3.4,0,0,0-.732,1.2,4.349,4.349,0,0,0-.255,1.51,4.25,4.25,0,0,0,.255,1.5,3.42,3.42,0,0,0,.732,1.184,3.5,3.5,0,0,0,1.126.79,3.545,3.545,0,0,0,1.463.29,3.711,3.711,0,0,0,1.451-.278,3.308,3.308,0,0,0,1.126-.767,3.521,3.521,0,0,0,.732-1.184A4.257,4.257,0,0,0,262.715,211.336Z" transform="translate(-214.305 -200.048)" fill="#a5a0a2"/><path d="M296.573,217.294a4.21,4.21,0,0,1,1.312-3.31,5.263,5.263,0,0,1,3.635-1.173,5.935,5.935,0,0,1,2.38.407,1.321,1.321,0,0,1,.917,1.243,1.485,1.485,0,0,1-.22.767,1.552,1.552,0,0,1-.36.465,6.305,6.305,0,0,0-.975-.348,4.928,4.928,0,0,0-1.324-.163q-2.718,0-2.717,2.88V224.8h-2.648Z" transform="translate(-240.509 -207.678)" fill="#a5a0a2"/><path d="M336.182,224.75c-.155.031-.4.065-.732.1s-.724.078-1.173.116-.952.073-1.51.1-1.138.046-1.742.046a11.538,11.538,0,0,1-2.961-.313,5.05,5.05,0,0,1-1.811-.837,2.685,2.685,0,0,1-.906-1.208,4.161,4.161,0,0,1-.244-1.4,4.447,4.447,0,0,1,.29-1.673,2.772,2.772,0,0,1,.953-1.208,4.629,4.629,0,0,1,1.73-.732,11.886,11.886,0,0,1,2.6-.244q.883,0,1.672.058t1.185.1a3.008,3.008,0,0,0-.267-1.347,2.088,2.088,0,0,0-.732-.836,3,3,0,0,0-1.115-.418,8.242,8.242,0,0,0-1.44-.116,6.152,6.152,0,0,0-2.125.3,4.249,4.249,0,0,0-1.057.511,2.837,2.837,0,0,1-.384-.441,1.282,1.282,0,0,1-.244-.79,1.3,1.3,0,0,1,.175-.639,1.506,1.506,0,0,1,.615-.557,4,4,0,0,1,1.185-.383,10.492,10.492,0,0,1,1.881-.14,10.824,10.824,0,0,1,2.5.267,5.473,5.473,0,0,1,1.939.848,3.906,3.906,0,0,1,1.266,1.533,5.319,5.319,0,0,1,.453,2.3Zm-2.625-5.157q-.232-.046-.871-.139a14.5,14.5,0,0,0-1.916-.093,4.281,4.281,0,0,0-2.3.476,1.667,1.667,0,0,0-.72,1.5,1.9,1.9,0,0,0,.151.767,1.358,1.358,0,0,0,.523.592,2.873,2.873,0,0,0,1.01.372,8.291,8.291,0,0,0,1.591.128,13.845,13.845,0,0,0,1.7-.081q.627-.081.836-.128Z" transform="translate(-257.593 -207.678)" fill="#a5a0a2"/><path d="M365.2,221.893a3.7,3.7,0,0,0,.581.3,10.273,10.273,0,0,0,1.034.383,10.685,10.685,0,0,0,1.406.337,9.9,9.9,0,0,0,1.718.14,5.283,5.283,0,0,0,1.975-.314,1.1,1.1,0,0,0,.766-1.08,1.124,1.124,0,0,0-.488-.987,4.063,4.063,0,0,0-1.742-.476l-1.812-.209a8.526,8.526,0,0,1-1.707-.337,4.413,4.413,0,0,1-1.336-.662,2.956,2.956,0,0,1-.871-1.034,3.214,3.214,0,0,1-.313-1.475,3.452,3.452,0,0,1,.29-1.405,3.129,3.129,0,0,1,.918-1.173,4.565,4.565,0,0,1,1.637-.8,8.986,8.986,0,0,1,2.45-.29,10.443,10.443,0,0,1,3.751.534q1.335.534,1.335,1.394a1.08,1.08,0,0,1-.1.488,2.208,2.208,0,0,1-.232.372,1.445,1.445,0,0,1-.267.267.874.874,0,0,1-.209.128,2.727,2.727,0,0,0-.406-.29,4.66,4.66,0,0,0-.848-.395,8.81,8.81,0,0,0-1.278-.348,8.715,8.715,0,0,0-1.718-.151q-2.695,0-2.695,1.417a1.01,1.01,0,0,0,.511.917,3.684,3.684,0,0,0,1.464.43l2.369.3a6.349,6.349,0,0,1,3,1.057,2.763,2.763,0,0,1,1.069,2.357,3.322,3.322,0,0,1-1.382,2.787,6.516,6.516,0,0,1-3.983,1.045,12.776,12.776,0,0,1-2.276-.186,14.034,14.034,0,0,1-1.777-.43,8.9,8.9,0,0,1-1.219-.476,3.7,3.7,0,0,1-.6-.348Z" transform="translate(-281.002 -207.678)" fill="#a5a0a2"/><path d="M413.8,224.75c-.155.031-.4.065-.732.1s-.724.078-1.173.116-.952.073-1.51.1-1.138.046-1.742.046a11.538,11.538,0,0,1-2.961-.313,5.051,5.051,0,0,1-1.811-.837,2.684,2.684,0,0,1-.906-1.208,4.161,4.161,0,0,1-.244-1.4,4.446,4.446,0,0,1,.29-1.673,2.772,2.772,0,0,1,.953-1.208,4.63,4.63,0,0,1,1.73-.732,11.886,11.886,0,0,1,2.6-.244q.883,0,1.672.058t1.185.1a3.008,3.008,0,0,0-.267-1.347,2.088,2.088,0,0,0-.732-.836,3,3,0,0,0-1.115-.418,8.241,8.241,0,0,0-1.44-.116,6.153,6.153,0,0,0-2.125.3,4.249,4.249,0,0,0-1.056.511,2.834,2.834,0,0,1-.384-.441,1.281,1.281,0,0,1-.244-.79,1.3,1.3,0,0,1,.174-.639,1.506,1.506,0,0,1,.615-.557,4,4,0,0,1,1.185-.383,10.492,10.492,0,0,1,1.881-.14,10.825,10.825,0,0,1,2.5.267,5.473,5.473,0,0,1,1.939.848,3.905,3.905,0,0,1,1.266,1.533,5.319,5.319,0,0,1,.453,2.3Zm-2.625-5.157q-.232-.046-.871-.139a14.5,14.5,0,0,0-1.916-.093,4.28,4.28,0,0,0-2.3.476,1.667,1.667,0,0,0-.72,1.5,1.894,1.894,0,0,0,.151.767,1.354,1.354,0,0,0,.522.592,2.873,2.873,0,0,0,1.01.372,8.29,8.29,0,0,0,1.591.128,13.844,13.844,0,0,0,1.7-.081q.627-.081.836-.128Z" transform="translate(-304.064 -207.678)" fill="#a5a0a2"/><path d="M443.724,206.65a1.122,1.122,0,0,1,.372-.941,1.621,1.621,0,0,1,1.022-.29,2.786,2.786,0,0,1,.778.1q.36.1.476.151v3.042h3.368a1.5,1.5,0,0,1,1.08.314,1.242,1.242,0,0,1,.313.917,2.221,2.221,0,0,1-.116.732,4.307,4.307,0,0,1-.186.476h-4.459v5.18a2.553,2.553,0,0,0,.162.987,1.535,1.535,0,0,0,.453.616,1.7,1.7,0,0,0,.674.325,3.372,3.372,0,0,0,.8.093,3.68,3.68,0,0,0,1.254-.209,3.545,3.545,0,0,0,.836-.395l1.069,1.765q-.186.139-.523.348a4.851,4.851,0,0,1-.824.395,7.377,7.377,0,0,1-1.092.313,6.4,6.4,0,0,1-1.323.128,4.161,4.161,0,0,1-3.089-1.057,3.776,3.776,0,0,1-1.045-2.775Z" transform="translate(-328.622 -203.259)" fill="#a5a0a2"/><path d="M474.492,200.626a1.586,1.586,0,1,1-1.139.465A1.547,1.547,0,0,1,474.492,200.626Zm-1.324,6.457a1.122,1.122,0,0,1,.371-.941,1.664,1.664,0,0,1,1.046-.29,2.645,2.645,0,0,1,.766.1c.232.07.387.12.465.151v11.4h-2.647Z" transform="translate(-346.057 -200.394)" fill="#a5a0a2"/><rect width="3.414" height="3.445" transform="translate(126.727 0.112)" fill="#039d8f"/></g><g transform="translate(0.068 43.46)"><rect width="3.837" height="3.872" transform="translate(13.395 32.581)" fill="#039d8f"/><rect width="3.837" height="3.872" transform="translate(6.802 32.581)" fill="#039d8f"/><rect width="3.837" height="3.872" transform="translate(29.374)" fill="#039d8f"/><rect width="3.837" height="3.872" transform="translate(36.001)" fill="#039d8f"/><path d="M176.9,161.2c0,2.546-.976,3.837-2.965,3.837h-3.8c.523-.558.8-1.988.8-4.256v-7.6H167v7.988c0,2.581-.977,3.872-2.965,3.872H160.4v-.209a8.521,8.521,0,0,0,.628-4.047v-7.6h-3.942v7.744c0,2.756-.976,4.116-2.965,4.116h-8.582c.558-.663.837-1.988.837-4.047v-7.814h-3.872V161.2a6.111,6.111,0,0,1-.419,2.651,2.37,2.37,0,0,1-2.337,1.186h-4.083c-1.988,0-3.349-1.011-4.779-3.628a7.457,7.457,0,0,0-6.907-4.151h-1.535v3.558a3.783,3.783,0,0,1,.628-.035,3.38,3.38,0,0,1,3.523,3.7c0,3.558-3.418,6.558-7.953,6.558-5.058,0-8.2-3.384-8.2-8.791V158.8h-3.907V162.7a11.892,11.892,0,0,0,12,12.1c5.686,0,10.361-3.418,11.477-8.861,1.47,2.205,2.625,2.944,6.107,3.053v.016h37.954c3.977,0,6.767-3.279,6.767-8.3v-7.535H176.9Z" transform="translate(-106.541 -146.063)" fill="#039d8f"/><path d="M303.092,166.5c0,3.349-1.6,4.954-4.849,4.954v3.349c6,0,8.756-2.617,8.756-8.9V153.179h-3.907Z" transform="translate(-221.147 -146.063)" fill="#039d8f"/><path d="M361.694,155.9a7.639,7.639,0,0,0-7.884,8.023,8.525,8.525,0,0,0,.07.942l.035.175h-9.175c-.035-5.965-2.372-9.732-7.046-11.3a8.523,8.523,0,0,0-2.093-.489c-.488-.035-1.709-.07-3.628-.07v3.558a16.155,16.155,0,0,1,3.523.314c3.523.767,5.3,3.418,5.3,7.988H328.17v3.977h27.21a7.4,7.4,0,0,0,6.314,3.1c4.639,0,7.814-3.418,7.814-8.058C369.508,159.493,366.333,155.9,361.694,155.9Zm.1,12.593c-2.337,0-3.976-1.988-3.976-4.6s1.569-4.465,3.767-4.465c2.3,0,3.907,1.988,3.907,4.639S363.961,168.493,361.8,168.493Z" transform="translate(-239.038 -146.063)" fill="#039d8f"/></g><line x2="0.446" transform="translate(52.609 44.164)" fill="none"/></svg>